<svg xmlns="http://www.w3.org/2000/svg" version="1.1" xmlns:xlink="http://www.w3.org/1999/xlink" width="512" height="512" x="0" y="0" viewBox="0 0 512 512" style="enable-background:new 0 0 512 512" xml:space="preserve" class=""><g><path fill="#ffe6b4" d="M118.05 313.662v48.643h274.814v-48.643z" opacity="1" data-original="#ffe6b4"></path><path fill="#80b6ff" d="M255.997 459.215s-31.062-53.288-80.906-23.429c-21.523 12.893-41.605 16.746-57.945 15.713-9.091-.574-13.74 10.683-6.974 16.782 32.489 29.287 91.004 62.235 145.825-9.066zM255.997 459.215s31.062-53.288 80.906-23.429c21.523 12.893 41.605 16.746 57.945 15.713 9.091-.574 13.74 10.683 6.974 16.782-32.489 29.287-91.004 62.235-145.825-9.066z" opacity="1" data-original="#80b6ff"></path><path fill="#dfedff" d="M374.198 56.909c-12.582 0-25.492 3.495-35.785 9.623-13.072-35.703-45.273-56.512-82.956-56.512S185.573 30.829 172.5 66.532c-10.293-6.128-22.117-9.623-34.699-9.623-39.781 0-72.029 32.358-72.029 75.355 0 35.591 22.104 65.581 52.278 74.865v106.534h274.813v-103.78l1.086-2.754c30.174-9.283 52.278-39.274 52.278-74.865.001-42.997-32.248-75.355-72.029-75.355z" opacity="1" data-original="#dfedff" class=""></path><path d="M265.398 362.305c0-5.523-4.477-10-10-10s-10 4.477-10 10 4.477 10 10 10 10-4.478 10-10zM398.375 441.107c-12.468 1.574-32.359.439-56.322-13.916-16.573-9.928-33.175-12.852-49.343-8.696-16.686 4.29-29.116 15.336-36.712 24.018-7.596-8.682-20.026-19.728-36.713-24.019-16.168-4.155-32.77-1.231-49.343 8.697-23.963 14.355-43.857 15.489-56.322 13.916a17.806 17.806 0 0 0-18.355 10.035c-3.352 7.047-1.871 15.083 3.772 20.474C118.679 490.375 148.821 512 183.371 512c2.074 0 4.166-.078 6.272-.24 24-1.838 46.276-14.215 66.355-36.82 20.079 22.604 42.355 34.982 66.355 36.82 2.107.161 4.195.24 6.272.24 34.547 0 64.693-21.626 84.334-40.384 5.644-5.39 7.125-13.427 3.773-20.474a17.817 17.817 0 0 0-18.357-10.035zM188.112 491.78c-27.241 2.086-52.612-14.338-70.422-30.214 15.548.78 37.457-2.153 62.55-17.185 11.765-7.047 23.183-9.234 33.936-6.509 13.82 3.507 24.075 14.27 29.298 20.927-17.211 20.396-35.81 31.483-55.362 32.981zm135.77 0c-19.55-1.497-38.146-12.581-55.355-32.973 5.222-6.633 15.466-17.381 29.171-20.905 10.79-2.773 22.247-.595 34.056 6.478 25.094 15.032 47.003 17.96 62.55 17.185-17.809 15.877-43.175 32.314-70.422 30.215z" fill="#000000" opacity="1" data-original="#000000"></path><path d="M374.198 46.889c-10.548 0-21.148 2.093-30.756 5.998C327.107 19.993 294.315 0 255.457 0c-38.838 0-71.616 19.975-87.961 52.837-9.427-3.912-19.519-5.948-29.695-5.948-46.009 0-82.049 37.501-82.049 85.375 0 36.279 21.158 68.88 52.278 81.882v148.158c0 5.533 4.486 10.02 10.02 10.02h91.921c5.534 0 10.02-4.486 10.02-10.02s-4.486-10.02-10.02-10.02H128.07V323.68h254.774v28.604h-82.019c-5.534 0-10.02 4.486-10.02 10.02s4.486 10.02 10.02 10.02h92.039c5.534 0 10.02-4.486 10.02-10.02V214.58c31.712-12.691 53.364-45.618 53.364-82.316-.001-47.874-36.041-85.375-82.05-85.375zm16.805 150.663c-.215.066-.421.149-.628.228-16.03 4.054-32.294 2.188-45.906-5.316-4.848-2.675-10.941-.91-13.612 3.936-2.672 4.846-.909 10.94 3.937 13.612 11.919 6.571 25.288 9.917 39.024 9.917 2.995 0 6.008-.166 9.027-.486v84.198h-75.877v-52.194c0-5.533-4.486-10.02-10.02-10.02s-10.02 4.486-10.02 10.02v52.194h-63.061v-52.194c0-5.533-4.486-10.02-10.02-10.02s-10.02 4.486-10.02 10.02v52.194H128.07v-84.324c3.382.401 6.758.612 10.113.612 13.735 0 27.107-3.346 39.024-9.917 4.846-2.671 6.609-8.765 3.937-13.612-2.673-4.846-8.767-6.612-13.612-3.936-13.595 7.494-29.834 9.362-45.843 5.331a10.653 10.653 0 0 0-.691-.244c-26.616-8.19-45.205-35.037-45.205-65.289 0-36.637 27.238-65.335 62.01-65.335 10.322 0 20.549 2.84 29.573 8.213a10.02 10.02 0 0 0 14.534-5.164c11.277-30.803 39.459-49.938 73.547-49.938s62.27 19.135 73.547 49.938a10.022 10.022 0 0 0 14.534 5.164c8.767-5.22 19.942-8.213 30.659-8.213 34.772 0 62.01 28.699 62.01 65.335.001 30.253-18.588 57.101-45.204 65.29z" fill="#000000" opacity="1" data-original="#000000"></path></g></svg>